<svg xmlns="http://www.w3.org/2000/svg" width="31" height="31" viewBox="0 0 31 31"><defs><style>.a{fill:none;}.b{fill:#fff;}</style></defs><g transform="translate(-1918.185 -182.713)"><rect class="a" width="31" height="31" transform="translate(1918.185 182.713)"/><g transform="translate(1918.185 183.997)"><path class="b" d="M4678.125-585.512c-.006-.017-.013-.033-.021-.05l-2.823-5.875a2.41,2.41,0,0,0-2.243-1.643h-20.222a2.411,2.411,0,0,0-2.245,1.643l-2.822,5.875a.368.368,0,0,0-.021.05,3.763,3.763,0,0,0,.452,3.331,3.238,3.238,0,0,0,2.555,1.44l.121,0a3.459,3.459,0,0,0,3.019-1.858,3.445,3.445,0,0,0,3.017,1.858,3.449,3.449,0,0,0,3.018-1.858,3.45,3.45,0,0,0,3.019,1.858,3.447,3.447,0,0,0,3.017-1.858,3.45,3.45,0,0,0,3.018,1.858,3.308,3.308,0,0,0,.976-.148,3.415,3.415,0,0,0,2.021-1.748,3.454,3.454,0,0,0,3.039,1.9l.121,0a3.239,3.239,0,0,0,2.555-1.44A3.757,3.757,0,0,0,4678.125-585.512Z" transform="translate(-4647.528 593.079)"/><path class="b" d="M4674.653-582.292l-.144,0a4.042,4.042,0,0,1-3.029-1.391,3.953,3.953,0,0,1-1.837,1.215,3.948,3.948,0,0,1-1.168.176,4.05,4.05,0,0,1-3.018-1.38,4.047,4.047,0,0,1-3.017,1.38,4.05,4.05,0,0,1-3.019-1.38,4.047,4.047,0,0,1-3.018,1.38,4.043,4.043,0,0,1-3.017-1.38,4.053,4.053,0,0,1-3.019,1.38l-.144,0a3.821,3.821,0,0,1-.977-.166v14.793h9.279v-10.628h7.826v10.628h9.279v-14.793A3.843,3.843,0,0,1,4674.653-582.292Z" transform="translate(-4647.04 596)"/></g></g></svg>