<svg xmlns="http://www.w3.org/2000/svg" width="32" height="32" viewBox="0 0 32 32"><defs><style>.a,.d{fill:none;}.a{stroke:#bbb;stroke-width:1.5px;}.b{fill:#bbb;}.c{stroke:none;}</style></defs><g class="a"><rect class="c" width="32" height="32" rx="16"/><rect class="d" x="0.75" y="0.75" width="30.5" height="30.5" rx="15.25"/></g><path class="b" d="M6.026,19.41a2.057,2.057,0,0,0,2.051,2.051h8.205a2.057,2.057,0,0,0,2.051-2.051V7.1H6.026Zm2.523-7.3,1.446-1.446,2.185,2.174,2.174-2.174L15.8,12.108l-2.174,2.174L15.8,16.456,14.354,17.9l-2.174-2.174L10.005,17.9,8.559,16.456l2.174-2.174Zm7.221-8.082L14.744,3H9.615L8.59,4.026H5V6.077H19.359V4.026Z" transform="translate(3.616 4.385)"/></svg>