<?xml version="1.0" encoding="utf-8"?>
<!-- Generator: Adobe Illustrator 19.0.0, SVG Export Plug-In . SVG Version: 6.00 Build 0)  -->
<svg version="1.1" id="Layer_1" xmlns="http://www.w3.org/2000/svg" xmlns:xlink="http://www.w3.org/1999/xlink" x="0px" y="0px"
	 viewBox="-289 381 32 32" style="enable-background:new -289 381 32 32;" xml:space="preserve">
<style type="text/css">
	.st0{fill:none;}
	.st1{fill:none;stroke:#0062AF;stroke-width:1.5;}
	.st2{fill:#0062AF;}
</style>
<g>
	<path class="st0" d="M-273,381L-273,381c8.8,0,16,7.2,16,16l0,0c0,8.8-7.2,16-16,16l0,0c-8.8,0-16-7.2-16-16l0,0
		C-289,388.2-281.8,381-273,381z"/>
	<path class="st1" d="M-273,381.8L-273,381.8c8.4,0,15.3,6.8,15.3,15.3l0,0c0,8.4-6.8,15.3-15.3,15.3l0,0c-8.4,0-15.3-6.8-15.3-15.3
		l0,0C-288.3,388.6-281.4,381.8-273,381.8z"/>
</g>
<g>
	<g>
		<g>
			<path class="st2" d="M-266.1,388.9h-9c-0.6,0-1.2,0.5-1.2,1.2v2.7h1.1V390c0-0.1,0-0.1,0.1-0.1h9c0.1,0,0.1,0,0.1,0.1v9
				c0,0.1,0,0.1-0.1,0.1h-2.6v1.1h2.6c0.6,0,1.2-0.5,1.2-1.2v-9C-264.9,389.4-265.4,388.9-266.1,388.9z"/>
			<path class="st2" d="M-270.9,393.8h-9c-0.6,0-1.2,0.5-1.2,1.2v9c0,0.6,0.5,1.2,1.2,1.2h9c0.6,0,1.2-0.5,1.2-1.2v-9
				C-269.8,394.3-270.3,393.8-270.9,393.8z M-270.9,404.1h-9c-0.1,0-0.1,0-0.1-0.1v-9c0-0.1,0-0.1,0.1-0.1h9c0.1,0,0.1,0,0.1,0.1v9
				h0C-270.8,404-270.9,404.1-270.9,404.1z"/>
		</g>
	</g>
</g>
</svg>
