<svg xmlns="http://www.w3.org/2000/svg" xmlns:xlink="http://www.w3.org/1999/xlink" width="200" height="125" viewBox="0 0 200 125"><defs><style>.a,.g{fill:none;}.b{fill:rgba(0,98,175,0.1);}.b,.e{stroke:#0062af;}.c{fill:#fff;stroke:#ccc;}.d{fill:#0062af;font-size:12px;font-family:NotoSansCJKjp-Bold, Noto Sans CJK JP;font-weight:700;}.e{fill:rgba(0,98,175,0.2);}.f{clip-path:url(#a);}.g{stroke:#bbb;stroke-width:2px;}.h{stroke:none;}</style><clipPath id="a"><rect class="a" width="77" height="19"/></clipPath></defs><g transform="translate(-597 -386)"><g class="b" transform="translate(597 386)"><rect class="h" width="200" height="125"/><rect class="a" x="0.5" y="0.5" width="199" height="124"/></g><g class="c" transform="translate(617 415)"><rect class="h" width="160" height="86"/><rect class="a" x="0.5" y="0.5" width="159" height="85"/></g><text class="d" transform="translate(673 406)"><tspan x="0" y="0">背景画像</tspan></text><g class="e" transform="translate(617 415)"><rect class="h" width="160" height="40"/><rect class="a" x="0.5" y="0.5" width="159" height="39"/></g><text class="d" transform="translate(667 440)"><tspan x="0" y="0">会員証画像</tspan></text><g class="f" transform="translate(661.5 467.5)"><g transform="translate(-657.5 -475.5)"><line class="g" y2="19" transform="translate(658.5 475.5)"/></g><g transform="translate(-652.5 -475.5)"><line class="g" y2="19" transform="translate(658.5 475.5)"/></g><g transform="translate(-647.5 -475.5)"><line class="g" y2="19" transform="translate(658.5 475.5)"/></g><g transform="translate(-642.5 -475.5)"><line class="g" y2="19" transform="translate(658.5 475.5)"/></g><g transform="translate(-637.5 -475.5)"><line class="g" y2="19" transform="translate(658.5 475.5)"/></g><g transform="translate(-632.5 -475.5)"><line class="g" y2="19" transform="translate(658.5 475.5)"/></g><g transform="translate(-627.5 -475.5)"><line class="g" y2="19" transform="translate(658.5 475.5)"/></g><g transform="translate(-622.5 -475.5)"><line class="g" y2="19" transform="translate(658.5 475.5)"/></g><g transform="translate(-617.5 -475.5)"><line class="g" y2="19" transform="translate(658.5 475.5)"/></g><g transform="translate(-612.5 -475.5)"><line class="g" y2="19" transform="translate(658.5 475.5)"/></g><g transform="translate(-607.5 -475.5)"><line class="g" y2="19" transform="translate(658.5 475.5)"/></g><g transform="translate(-602.5 -475.5)"><line class="g" y2="19" transform="translate(658.5 475.5)"/></g><g transform="translate(-597.5 -475.5)"><line class="g" y2="19" transform="translate(658.5 475.5)"/></g><g transform="translate(-592.5 -475.5)"><line class="g" y2="19" transform="translate(658.5 475.5)"/></g><g transform="translate(-587.5 -475.5)"><line class="g" y2="19" transform="translate(658.5 475.5)"/></g><g transform="translate(-582.5 -475.5)"><line class="g" y2="19" transform="translate(658.5 475.5)"/></g></g></g></svg>