<svg xmlns="http://www.w3.org/2000/svg" width="153" height="40" viewBox="0 0 153 40">
  <g id="logo" transform="translate(-79.723 -459.234)">
    <g id="グループ化_30" data-name="グループ化 30" transform="translate(123.471 486.149)">
      <g id="グループ化_29" data-name="グループ化 29">
        <path id="パス_238" data-name="パス 238" d="M152.494,504.08h2.8v.59h-2.12v1.022h1.961v.558h-1.961v1.141h2.158v.591h-2.84Z" transform="translate(-152.494 -503.987)" fill="#0470bb"/>
        <path id="パス_239" data-name="パス 239" d="M159.382,505.816h.59v.415l.01.012a1.01,1.01,0,0,1,.879-.5.892.892,0,0,1,1,.962v1.939h-.621v-1.776c-.011-.441-.186-.634-.551-.634a.688.688,0,0,0-.681.744v1.666h-.621Z" transform="translate(-155.234 -504.648)" fill="#0470bb"/>
        <path id="パス_240" data-name="パス 240" d="M165.439,505.307h.469v-.847h.621v.847h.562v.465h-.562v1.507c0,.257.023.387.3.387a1.094,1.094,0,0,0,.261-.021v.482c-.136.01-.267.031-.4.031-.648,0-.768-.251-.779-.721v-1.665h-.469Z" transform="translate(-157.643 -504.138)" fill="#0470bb"/>
        <path id="パス_241" data-name="パス 241" d="M170.649,507.39a.75.75,0,0,0,.758.835.653.653,0,0,0,.686-.469h.589a1.232,1.232,0,0,1-1.275.961,1.338,1.338,0,0,1-1.38-1.486,1.364,1.364,0,1,1,2.693.159Zm1.45-.41a.725.725,0,1,0-1.45,0Z" transform="translate(-159.469 -504.648)" fill="#0470bb"/>
        <path id="パス_242" data-name="パス 242" d="M176.426,505.816h.583v.547h.01a.913.913,0,0,1,.824-.623,1.521,1.521,0,0,1,.235.016v.6a2.153,2.153,0,0,0-.268-.028c-.426,0-.764.346-.764.966v1.345h-.621Z" transform="translate(-162.014 -504.648)" fill="#0470bb"/>
        <path id="パス_243" data-name="パス 243" d="M180.834,505.307h.469v-.847h.622v.847h.561v.465h-.561v1.507c0,.257.021.387.3.387a1.094,1.094,0,0,0,.262-.021v.482c-.136.01-.268.031-.4.031-.648,0-.768-.251-.78-.721v-1.665h-.469Z" transform="translate(-163.767 -504.138)" fill="#0470bb"/>
        <path id="パス_244" data-name="パス 244" d="M187.91,508.013c0,.152.032.213.147.213a.909.909,0,0,0,.152-.01v.432a1.6,1.6,0,0,1-.392.07c-.251,0-.431-.087-.481-.343a1.44,1.44,0,0,1-.976.343.858.858,0,0,1-.965-.824c0-.706.561-.821,1.085-.88.447-.081.846-.032.846-.4,0-.323-.332-.384-.582-.384-.349,0-.6.142-.623.449H185.5c.044-.728.661-.941,1.282-.941.55,0,1.129.224,1.129.819Zm-.621-.787a2.2,2.2,0,0,1-.763.169c-.268.043-.508.143-.508.47,0,.278.354.36.572.36.273,0,.7-.141.7-.535Z" transform="translate(-165.582 -504.648)" fill="#0470bb"/>
        <path id="パス_245" data-name="パス 245" d="M192.2,504.08h.621v.59H192.2Zm0,1.076h.621v2.824H192.2Z" transform="translate(-168.288 -503.987)" fill="#0470bb"/>
        <path id="パス_246" data-name="パス 246" d="M195.6,505.816h.59v.415l.011.012a1.009,1.009,0,0,1,.879-.5.892.892,0,0,1,1,.962v1.939h-.621v-1.776c-.01-.441-.184-.634-.55-.634a.688.688,0,0,0-.682.744v1.666H195.6Z" transform="translate(-169.642 -504.648)" fill="#0470bb"/>
        <path id="パス_247" data-name="パス 247" d="M202.132,505.816h.589v.394h.016a.941.941,0,0,1,.867-.47.8.8,0,0,1,.79.47,1.016,1.016,0,0,1,.883-.47.828.828,0,0,1,.942.951v1.95h-.62v-1.65c0-.449-.028-.76-.512-.76-.42,0-.6.278-.6.755v1.655h-.621v-1.814c0-.387-.121-.6-.5-.6a.653.653,0,0,0-.615.732v1.677h-.622Z" transform="translate(-172.239 -504.648)" fill="#0470bb"/>
        <path id="パス_248" data-name="パス 248" d="M211.575,507.39a.751.751,0,0,0,.758.835.655.655,0,0,0,.688-.469h.589a1.235,1.235,0,0,1-1.277.961,1.338,1.338,0,0,1-1.379-1.486,1.365,1.365,0,1,1,2.693.159Zm1.451-.41a.726.726,0,1,0-1.451,0Z" transform="translate(-175.748 -504.648)" fill="#0470bb"/>
        <path id="パス_249" data-name="パス 249" d="M217.543,505.816h.588v.415l.011.012a1.008,1.008,0,0,1,.878-.5.892.892,0,0,1,1,.962v1.939H219.4v-1.776c-.011-.441-.185-.634-.55-.634a.688.688,0,0,0-.682.744v1.666h-.621Z" transform="translate(-178.369 -504.648)" fill="#0470bb"/>
        <path id="パス_250" data-name="パス 250" d="M223.6,505.307h.467v-.847h.623v.847h.562v.465h-.562v1.507c0,.257.021.387.3.387a1.107,1.107,0,0,0,.263-.021v.482c-.137.01-.267.031-.4.031-.649,0-.771-.251-.781-.721v-1.665H223.6Z" transform="translate(-180.778 -504.138)" fill="#0470bb"/>
        <path id="パス_251" data-name="パス 251" d="M232.32,506.618c0,.6.442.837.987.837.6,0,.823-.293.823-.59a.463.463,0,0,0-.321-.481c-.273-.1-.626-.175-1.162-.323a.989.989,0,0,1-.861-.988c0-.781.72-1.147,1.424-1.147.812,0,1.493.432,1.493,1.245h-.681c-.034-.5-.372-.688-.839-.688-.317,0-.715.116-.715.508,0,.272.185.426.463.5.061.017.92.241,1.123.3a1.031,1.031,0,0,1,.757.994c0,.874-.773,1.224-1.547,1.224-.889,0-1.608-.425-1.624-1.394Z" transform="translate(-183.976 -503.926)" fill="#0470bb"/>
        <path id="パス_252" data-name="パス 252" d="M238.862,507.226a1.425,1.425,0,1,1,1.422,1.491A1.363,1.363,0,0,1,238.862,507.226Zm2.225,0c0-.486-.246-.994-.8-.994s-.8.508-.8.994.246,1,.8,1S241.087,507.718,241.087,507.226Z" transform="translate(-186.849 -504.648)" fill="#0470bb"/>
        <path id="パス_253" data-name="パス 253" d="M245.715,504.08h.62v3.9h-.62Z" transform="translate(-189.575 -503.987)" fill="#0470bb"/>
        <path id="パス_254" data-name="パス 254" d="M251.675,508.691h-.613V508.3h-.01a.944.944,0,0,1-.8.469c-.734,0-1.052-.37-1.052-1.109v-1.792h.62V507.6c0,.5.2.677.541.677.518,0,.692-.332.692-.77v-1.639h.623Z" transform="translate(-190.961 -504.698)" fill="#0470bb"/>
        <path id="パス_255" data-name="パス 255" d="M255.334,505.307h.468v-.847h.623v.847h.563v.465h-.562v1.507c0,.257.022.387.3.387a1.107,1.107,0,0,0,.263-.021v.482c-.137.01-.268.031-.405.031-.647,0-.768-.251-.78-.721v-1.665h-.468Z" transform="translate(-193.401 -504.138)" fill="#0470bb"/>
        <path id="パス_256" data-name="パス 256" d="M260.336,504.08h.621v.59h-.621Zm0,1.076h.621v2.824h-.621Z" transform="translate(-195.391 -503.987)" fill="#0470bb"/>
        <path id="パス_257" data-name="パス 257" d="M263.365,507.226a1.425,1.425,0,1,1,1.423,1.491A1.363,1.363,0,0,1,263.365,507.226Zm2.225,0c0-.486-.246-.994-.8-.994s-.8.508-.8.994.245,1,.8,1S265.59,507.718,265.59,507.226Z" transform="translate(-196.596 -504.648)" fill="#0470bb"/>
        <path id="パス_258" data-name="パス 258" d="M270.283,505.816h.588v.415l.01.012a1.011,1.011,0,0,1,.879-.5.892.892,0,0,1,1,.962v1.939h-.623v-1.776c-.011-.441-.185-.634-.549-.634a.688.688,0,0,0-.682.744v1.666h-.621Z" transform="translate(-199.348 -504.648)" fill="#0470bb"/>
        <path id="パス_259" data-name="パス 259" d="M277.175,507.735c.033.36.308.491.64.491.234,0,.643-.049.626-.371s-.469-.366-.921-.47-.9-.263-.9-.837c0-.617.665-.808,1.177-.808.579,0,1.1.241,1.177.869h-.647c-.056-.3-.3-.378-.572-.378-.18,0-.513.044-.513.289,0,.307.458.349.916.455s.909.268.909.824c0,.672-.674.917-1.259.917-.708,0-1.236-.317-1.248-.982Z" transform="translate(-201.843 -504.648)" fill="#0470bb"/>
        <path id="パス_260" data-name="パス 260" d="M288.939,505.259a.93.93,0,0,0-.971-.777c-.833,0-1.182.738-1.182,1.487s.348,1.485,1.182,1.485a1,1,0,0,0,.992-1.021h.666a1.6,1.6,0,0,1-1.658,1.578,2.051,2.051,0,0,1,0-4.086,1.522,1.522,0,0,1,1.654,1.333Z" transform="translate(-205.641 -503.926)" fill="#0470bb"/>
        <path id="パス_261" data-name="パス 261" d="M293.875,507.226a1.424,1.424,0,1,1,1.422,1.491A1.363,1.363,0,0,1,293.875,507.226Zm2.223,0c0-.486-.245-.994-.8-.994s-.8.508-.8.994.244,1,.8,1S296.1,507.718,296.1,507.226Z" transform="translate(-208.732 -504.648)" fill="#0470bb"/>
        <path id="パス_262" data-name="パス 262" d="M300.608,505.816h.589v.394h.016a.941.941,0,0,1,.867-.47.8.8,0,0,1,.79.47,1.015,1.015,0,0,1,.883-.47.829.829,0,0,1,.943.951v1.95h-.621v-1.65c0-.449-.027-.76-.511-.76-.421,0-.6.278-.6.755v1.655h-.622v-1.814c0-.387-.119-.6-.5-.6a.653.653,0,0,0-.615.732v1.677h-.622Z" transform="translate(-211.41 -504.648)" fill="#0470bb"/>
        <path id="パス_263" data-name="パス 263" d="M309.842,505.816h.588v.382h.012a.941.941,0,0,1,.872-.458,1.327,1.327,0,0,1,1.319,1.5c0,.758-.381,1.474-1.218,1.474a1.093,1.093,0,0,1-.941-.441h-.011v1.409h-.621Zm1.388.415c-.522,0-.788.4-.788,1,0,.569.288.994.788.994.569,0,.78-.5.78-.994C312.011,506.717,311.743,506.231,311.23,506.231Z" transform="translate(-215.084 -504.648)" fill="#0470bb"/>
        <path id="パス_264" data-name="パス 264" d="M318.935,508.013c0,.152.034.213.148.213a.908.908,0,0,0,.152-.01v.432a1.6,1.6,0,0,1-.393.07c-.251,0-.431-.087-.48-.343a1.444,1.444,0,0,1-.976.343.857.857,0,0,1-.964-.824c0-.706.561-.821,1.085-.88.446-.081.844-.032.844-.4,0-.323-.332-.384-.583-.384-.349,0-.595.142-.621.449h-.621c.043-.728.66-.941,1.282-.941.55,0,1.128.224,1.128.819Zm-.622-.787a2.183,2.183,0,0,1-.763.169c-.266.043-.506.143-.506.47,0,.278.355.36.572.36.273,0,.7-.141.7-.535Z" transform="translate(-217.701 -504.648)" fill="#0470bb"/>
        <path id="パス_265" data-name="パス 265" d="M323.039,505.816h.589v.415l.01.012a1.012,1.012,0,0,1,.879-.5.892.892,0,0,1,1,.962v1.939h-.62v-1.776c-.01-.441-.185-.634-.552-.634a.689.689,0,0,0-.68.744v1.666h-.621Z" transform="translate(-220.333 -504.648)" fill="#0470bb"/>
        <path id="パス_266" data-name="パス 266" d="M329.049,505.867h.683l.735,2.108h.01l.714-2.108h.649l-1.1,2.977c-.2.508-.349.967-1,.967a2.736,2.736,0,0,1-.429-.033v-.525a1.737,1.737,0,0,0,.293.039c.289,0,.36-.154.437-.394l.071-.219Z" transform="translate(-222.724 -504.698)" fill="#0470bb"/>
      </g>
    </g>
    <path id="パス_267" data-name="パス 267" d="M101.73,474.977l-1.979,14.544,4.416.045a3.789,3.789,0,0,0,3.686-3.2l1.978-14.546-4.419-.046A3.785,3.785,0,0,0,101.73,474.977Zm-2.008-15.743c-13.764,0-20,6.235-20,20s6.235,20,20,20,20-6.234,20-20S113.488,459.234,99.722,459.234Zm0,37.036c-12.1,0-17.034-4.935-17.034-17.035S87.623,462.2,99.722,462.2s17.036,4.936,17.036,17.036S111.822,496.27,99.722,496.27Zm-3.951-28.411c-1.793-.019-2.9,1.419-3.144,3.209l-2.5,18.352,4.415.046a3.783,3.783,0,0,0,3.686-3.2l2.5-18.352Z" fill="#0470bb"/>
    <g id="グループ化_32" data-name="グループ化 32" transform="translate(123.122 465.356)">
      <g id="グループ化_31" data-name="グループ化 31" transform="translate(45.913)">
        <path id="パス_268" data-name="パス 268" d="M228.168,477.576h1.606l0,2.278a6.286,6.286,0,0,1,2.175-1.935,5.842,5.842,0,0,1,2.742-.638,6.128,6.128,0,0,1,4.516,1.9,6.264,6.264,0,0,1,1.874,4.568,6.374,6.374,0,0,1-1.866,4.628A6.277,6.277,0,0,1,232,489.663a6.874,6.874,0,0,1-2.24-1.836l0,4.849h-1.6Zm6.384,1.256a4.686,4.686,0,0,0-3.478,1.436,4.9,4.9,0,0,0-1.414,3.579,5.071,5.071,0,0,0,.626,2.526,4.591,4.591,0,0,0,1.8,1.78,5.009,5.009,0,0,0,2.477.659,4.692,4.692,0,0,0,2.413-.66,4.862,4.862,0,0,0,1.8-1.851,4.982,4.982,0,0,0,.01-4.985,4.8,4.8,0,0,0-4.233-2.485Z" transform="translate(-228.154 -472.535)" fill="#0470bb"/>
        <path id="パス_269" data-name="パス 269" d="M251.757,469.847h1.6l-.005,7.026a6.785,6.785,0,0,1,2.131-1.906,5.189,5.189,0,0,1,2.517-.63,4.4,4.4,0,0,1,2.467.708,4.214,4.214,0,0,1,1.589,1.9,10.1,10.1,0,0,1,.509,3.727l-.007,6.372h-1.6l0-5.9a15.1,15.1,0,0,0-.167-2.856,3.24,3.24,0,0,0-1.075-1.85,3.18,3.18,0,0,0-2.042-.622,3.917,3.917,0,0,0-2.588.953,4.483,4.483,0,0,0-1.512,2.366,16.263,16.263,0,0,0-.229,3.368l0,4.54-1.6,0Z" transform="translate(-237.536 -469.577)" fill="#0470bb"/>
        <path id="パス_270" data-name="パス 270" d="M277.972,477.321a6.164,6.164,0,0,1,4.751,2.073,6.622,6.622,0,0,1-.105,8.992,6.577,6.577,0,0,1-9.322-.008,6.6,6.6,0,0,1-.089-8.982A6.16,6.16,0,0,1,277.972,477.321Zm-.007,1.551a4.6,4.6,0,0,0-3.416,1.461,4.9,4.9,0,0,0-1.43,3.542,5.018,5.018,0,0,0,.65,2.5,4.6,4.6,0,0,0,1.755,1.791,5.012,5.012,0,0,0,4.864,0,4.614,4.614,0,0,0,1.757-1.787,5.009,5.009,0,0,0,.653-2.5,4.879,4.879,0,0,0-1.428-3.544A4.6,4.6,0,0,0,277.965,478.872Z" transform="translate(-245.391 -472.55)" fill="#0470bb"/>
        <path id="パス_271" data-name="パス 271" d="M295.128,477.636l1.6,0v1.811a5.606,5.606,0,0,1,1.553-1.589,3.111,3.111,0,0,1,1.7-.518,2.936,2.936,0,0,1,1.424.423l-.832,1.343a2.269,2.269,0,0,0-.851-.217,2.347,2.347,0,0,0-1.555.653,4.114,4.114,0,0,0-1.143,2.029,19.246,19.246,0,0,0-.3,4.277l0,4.186h-1.6Z" transform="translate(-254.791 -472.558)" fill="#0470bb"/>
        <path id="パス_272" data-name="パス 272" d="M308.274,469.4a1.328,1.328,0,0,1,1.322,1.326,1.257,1.257,0,0,1-.388.925,1.281,1.281,0,0,1-.936.387,1.324,1.324,0,0,1-1.312-1.314,1.324,1.324,0,0,1,1.315-1.324Zm-.8,5.084,1.6,0-.01,12.4-1.6,0Z" transform="translate(-259.501 -469.399)" fill="#0470bb"/>
        <path id="パス_273" data-name="パス 273" d="M325.394,477.663l-.011,12.4h-1.6v-2.13a6.687,6.687,0,0,1-2.241,1.822,6.13,6.13,0,0,1-2.715.6,6.022,6.022,0,0,1-4.473-1.907,6.382,6.382,0,0,1-1.848-4.631,6.26,6.26,0,0,1,1.874-4.565,6.1,6.1,0,0,1,4.5-1.894,5.866,5.866,0,0,1,2.748.643,6.164,6.164,0,0,1,2.161,1.939v-2.278Zm-6.385,1.245a4.758,4.758,0,0,0-4.214,2.477,5.009,5.009,0,0,0,0,4.984,4.844,4.844,0,0,0,1.786,1.852,4.644,4.644,0,0,0,2.408.665,4.918,4.918,0,0,0,2.459-.654,4.576,4.576,0,0,0,1.789-1.777,5.076,5.076,0,0,0,.628-2.526,4.921,4.921,0,0,0-1.4-3.58A4.639,4.639,0,0,0,319.008,478.909Z" transform="translate(-261.706 -472.565)" fill="#0470bb"/>
      </g>
      <path id="パス_274" data-name="パス 274" d="M185.761,483.743a6.9,6.9,0,0,0-1.41-4.347,6.356,6.356,0,0,0-5.226-2.479,6.166,6.166,0,0,0-5.085,2.411,6.794,6.794,0,0,0-1.5,4.3,6.864,6.864,0,0,0,1.756,4.6,6.171,6.171,0,0,0,4.9,2.058,7.126,7.126,0,0,0,2.525-.423,6.308,6.308,0,0,0,2.02-1.241,7.98,7.98,0,0,0,1.612-2.207l-1.874-1.006a7.672,7.672,0,0,1-1.312,1.71,4.5,4.5,0,0,1-1.4.79,4.992,4.992,0,0,1-1.707.3,4.017,4.017,0,0,1-3.018-1.253,4.533,4.533,0,0,1-1.205-2.909l10.919.01Zm-10.668-1.686a4.634,4.634,0,0,1,1.166-1.943,4.134,4.134,0,0,1,2.871-1.064h0a4.592,4.592,0,0,1,1.942.428,4.03,4.03,0,0,1,1.472,1.114,4.57,4.57,0,0,1,.715,1.472Zm27.808-4.651s-3.107,7.015-3.61,8.2c-.518-1.177-4.187-8.2-4.187-8.2s-3.493,7.006-4.012,8.191c-.5-1.191-3.729-8.2-3.729-8.2l-2.214,0,5.731,12.85,4.168-8.508,4.473,8.516,5.582-12.841Z" transform="translate(-160.12 -472.389)" fill="#0470bb"/>
      <path id="パス_275" data-name="パス 275" d="M151.926,477.507l3.1,0v1.284a7.033,7.033,0,0,1,1.778-1.235,4.121,4.121,0,0,1,1.648-.346,4.263,4.263,0,0,1,3.128,1.288,4.518,4.518,0,0,1,1.328,3.233l-.008,8.181-3.1,0,0-5.415a13.628,13.628,0,0,0-.2-2.94,2.012,2.012,0,0,0-.689-1.108,1.93,1.93,0,0,0-1.216-.381,2.275,2.275,0,0,0-1.612.628,3.371,3.371,0,0,0-.935,1.742,14.05,14.05,0,0,0-.137,2.509l-.006,4.962-3.1,0Z" transform="translate(-151.914 -472.508)" fill="#0470bb"/>
    </g>
  </g>
</svg>
