<?xml version="1.0" encoding="utf-8"?>
<!-- Generator: Adobe Illustrator 25.0.0, SVG Export Plug-In . SVG Version: 6.00 Build 0)  -->
<svg version="1.1" id="Layer_1" xmlns="http://www.w3.org/2000/svg" xmlns:xlink="http://www.w3.org/1999/xlink" x="0px" y="0px"
	 viewBox="0 0 263.6 56" style="enable-background:new 0 0 263.6 56;" xml:space="preserve">
<style type="text/css">
	.st0{fill:#FFFFFF;}
</style>
<g>
	<g>
		<g>
			<path class="st0" d="M33.7,30.2c1.8-2.7,2.7-5.8,2.7-9.1c0-3.2-0.7-6-2.1-8.5c-1.4-2.4-3.2-4.4-5.4-5.7s-4.5-2-7-2H0v51h7.5V37.2
				H19L29.6,56l9.2,0.1L27.3,36C29.9,34.7,32,32.8,33.7,30.2z M7.5,13.2h13c1.5,0,2.9,0.3,4.1,1c1.2,0.7,2.2,1.6,2.9,2.8
				c0.7,1.2,1.1,2.5,1.1,4.1c0,1.4-0.3,2.7-0.9,3.9c-0.6,1.2-1.4,2.2-2.5,2.9C24.2,28.6,23,29,21.5,29h-14V13.2z"/>
		</g>
	</g>
	<g>
		<g>
			<path class="st0" d="M77.2,22.1c-1.2-1.3-2.8-2.5-4.7-3.5c-2.3-1.2-4.9-1.8-7.8-1.8c-3.6,0-6.9,0.9-9.7,2.6
				c-2.8,1.7-5.1,4.1-6.7,7c-1.6,3-2.4,6.4-2.4,10.3S46.7,44,48.2,47c1.5,3,3.7,5.4,6.4,7.1c2.7,1.7,5.8,2.6,9.3,2.6
				c2.1,0,4.1-0.3,5.9-1c1.8-0.7,3.4-1.6,4.8-2.6c1-0.8,1.9-1.7,2.7-2.5V56h7.5V17.5h-7.5V22.1z M75.9,30.4c1,1.8,1.5,3.9,1.5,6.3
				c0,2.4-0.5,4.6-1.5,6.4c-1,1.8-2.4,3.3-4.2,4.4c-1.8,1.1-3.9,1.6-6.2,1.6c-2.3,0-4.4-0.6-6.2-1.6C57.4,46.4,56,44.9,55,43
				c-1-1.8-1.5-4-1.5-6.4c0-2.3,0.5-4.4,1.5-6.3c1-1.8,2.4-3.3,4.2-4.4c1.8-1.1,3.9-1.6,6.2-1.6c2.3,0,4.4,0.6,6.2,1.6
				C73.5,27,74.9,28.5,75.9,30.4z"/>
		</g>
	</g>
	<g>
		<polygon class="st0" points="133.9,17.5 123.3,17.5 104.6,35.1 104.6,2.1 97.3,2.1 97.3,56 104.6,56 104.6,44.1 110.2,39 
			124.3,56 134.1,56 115.8,34 		"/>
	</g>
	<g>
		<path class="st0" d="M240.4,17.1c-1.2-0.2-2.5-0.4-3.8-0.4c-2.8,0-5.5,0.8-8.1,2.4c-2.1,1.3-3.9,3-5.3,4.9v-6.6h-8.8V56h8.8V35.6
			c0-1.9,0.5-3.6,1.6-5.1c1.1-1.5,2.5-2.8,4.3-3.8c1.8-0.9,3.7-1.4,5.8-1.4c1,0,2.1,0.1,3.1,0.4c1.1,0.3,2,0.6,2.7,0.9l0.5,0.2
			l2.3-8.7l-0.3-0.1C242.6,17.7,241.7,17.3,240.4,17.1z"/>
	</g>
	<g>
		<g>
			<path class="st0" d="M258.3,10.1c1.8,0,3.1-0.5,4-1.6c0.9-1,1.3-2.2,1.3-3.5c0-1.5-0.4-2.7-1.3-3.6c-0.9-0.9-2.2-1.4-4-1.4
				c-1.8,0-3.1,0.5-4,1.6c-0.9,1-1.3,2.2-1.3,3.5c0,1.5,0.4,2.7,1.3,3.6C255.2,9.6,256.5,10.1,258.3,10.1z"/>
		</g>
		<g>
			<rect x="254.2" y="17.5" class="st0" width="8.2" height="38.5"/>
		</g>
	</g>
	<g>
		<rect x="193.1" class="st0" width="8.2" height="38.5"/>
	</g>
	<g>
		<path class="st0" d="M197.2,45.9c-1.8,0-3.1,0.5-4,1.4c-0.9,0.9-1.3,2.2-1.3,3.6c0,1.3,0.4,2.5,1.3,3.5c0.9,1,2.2,1.6,4,1.6
			c1.8,0,3.1-0.5,4-1.4c0.9-0.9,1.3-2.2,1.3-3.6c0-1.3-0.4-2.5-1.3-3.5C200.3,46.4,198.9,45.9,197.2,45.9z"/>
	</g>
	<g>
		<g>
			<path class="st0" d="M149.7,17.7c-1.8,0-3.1,0.5-4,1.4c-0.9,0.9-1.3,2.2-1.3,3.6c0,1.3,0.4,2.5,1.3,3.5c0.9,1,2.2,1.6,4,1.6
				c1.8,0,3.1-0.5,4-1.4c0.9-0.9,1.3-2.2,1.3-3.6c0-1.3-0.4-2.5-1.3-3.5C152.9,18.3,151.5,17.7,149.7,17.7z"/>
		</g>
		<g>
			<path class="st0" d="M171.1,17.7c-1.8,0-3.1,0.5-4,1.4c-0.9,0.9-1.3,2.2-1.3,3.6c0,1.3,0.4,2.5,1.3,3.5c0.9,1,2.2,1.6,4,1.6
				c1.8,0,3.1-0.5,4-1.4c0.9-0.9,1.3-2.2,1.3-3.6c0-1.3-0.4-2.5-1.3-3.5C174.2,18.3,172.9,17.7,171.1,17.7z"/>
		</g>
	</g>
	<g>
		<path class="st0" d="M160.4,56.6c-11.2,0-20.4-9.1-20.4-20.4h7.8c0,6.9,5.7,12.6,12.6,12.6c6.9,0,12.6-5.7,12.6-12.6h7.8
			C180.8,47.5,171.6,56.6,160.4,56.6z"/>
	</g>
</g>
</svg>
